<svg width="128" height="128" viewBox="0 0 128 128" fill="none" xmlns="http://www.w3.org/2000/svg">
<ellipse cx="40.3217" cy="16.6428" rx="40.3217" ry="16.6428" transform="matrix(0.936927 0.349525 -0.227875 0.97369 38.2266 3.85352)" fill="#EDB432"/>
<path d="M102.393 35.6959C95.0902 32.7546 87.5419 30.8621 79.9507 29.1403C72.8645 27.533 65.7198 26.2109 58.5002 25.7018C52.8355 25.3023 46.9719 25.0574 41.3426 26.0713C39.0519 26.4839 35.6243 27.1167 34.3294 29.6866C33.2367 31.8552 34.0655 34.8731 34.9811 36.8849C37.0193 41.3633 40.9154 44.2402 44.5871 46.8147C56.9325 55.4709 71.5501 57.9789 85.5613 61.2435C92.4498 62.8485 101.451 65.7477 108.344 62.5289C112.412 60.6291 113.421 57.2391 112.991 52.4705C112.348 45.3403 106.441 40.1604 101.118 37.142" stroke="black" stroke-width="2" stroke-linecap="round"/>
<path d="M69.7495 57.0977C63.1946 57.1629 56.6367 57.2413 50.0841 57.4511C43.5578 57.6601 36.8627 57.7852 30.4471 59.3471C28.4693 59.8287 26.8397 60.5677 25.375 62.1429C23.9191 63.7086 21.8493 65.5587 20.9545 67.622C20.2863 69.1628 21.0745 70.9839 21.7904 72.2977C23.5173 75.4668 26.3259 76.6052 29.427 77.3912C35.8094 79.0088 42.4682 79.2033 48.979 79.3193C57.9484 79.4791 66.9592 79.5409 75.9268 79.2389C83.9319 78.9694 91.8248 78.2743 99.6442 76.3146C103.474 75.3548 106.382 72.7182 109.321 69.9036C111.371 67.9405 112.243 65.0145 110.809 62.3036" stroke="black" stroke-width="2" stroke-linecap="round"/>
<path d="M114.634 66.3516C113.285 73.1472 113.156 80.1683 112.126 87.0307C111.724 89.7135 111.345 91.9452 109.052 93.3132C105.401 95.4906 101.163 96.6927 97.2499 98.0371C90.9235 100.211 84.5452 102.39 77.9529 103.227C67.4626 104.558 57.0703 103.327 46.6272 102.199C42.321 101.733 38.0125 101.286 33.7343 100.544C31.8006 100.208 29.05 100.008 27.3586 98.6155C26.692 98.0666 26.1329 97.3045 25.7293 96.4946C24.004 93.0329 23.3723 88.7108 22.4848 84.9258C21.6224 81.2483 20.0195 77.1478 20.0195 73.2928" stroke="black" stroke-width="2" stroke-linecap="round"/>
<path d="M5.4834 46.3965L9.56382 50.1563" stroke="black" stroke-width="2" stroke-linecap="round"/>
<path d="M10.3286 36.2754C12.6183 38.7448 14.6119 41.4072 16.7043 44.0843" stroke="black" stroke-width="2" stroke-linecap="round"/>
<path d="M19.5098 33.6719C20.0466 37.7095 20.3874 41.7618 20.7849 45.8191" stroke="black" stroke-width="2" stroke-linecap="round"/>
<path d="M30.5718 70.4982C30.5718 66.4719 30.5718 62.4457 30.5718 58.4195C30.5718 57.0169 30.5329 51.1051 32.9219 51.5977C33.4463 51.7058 34.957 53.1539 35.0348 52.6246C35.2072 51.4512 35.8473 50.2207 36.6302 49.4216C37.0108 49.0331 38.1564 49.5525 38.4844 49.7639C39.396 50.3513 39.4306 49.461 40.4464 48.957C41.1573 48.6043 42.3368 48.5449 43.0767 48.847C43.5403 49.0362 43.8218 49.8128 44.2625 49.8128C45.1316 49.8128 45.9691 49.494 46.8497 49.6049C47.7491 49.7183 48.3723 51.7926 48.7254 52.5268C50.53 56.2787 50.9461 60.488 50.9461 64.6789C50.9461 66.9251 50.6567 69.4051 51.1402 71.5985" stroke="black" stroke-width="2" stroke-linecap="round"/>
<path d="M40.274 59.9328C38.8313 59.9328 37.626 62.1749 37.4065 63.6005C37.2687 64.4951 36.9989 65.3682 37.5682 66.0944C38.5395 67.3337 40.027 68.3789 41.3951 68.9185C44.3526 70.0851 46.1499 66.8838 46.2785 64.0406C46.3409 62.6593 46.3079 61.3933 45.7503 60.1284C45.0143 58.4592 42.8537 58.8325 41.4382 58.8325" stroke="black" stroke-width="2" stroke-linecap="round"/>
<path d="M33.8706 55.3125C33.8968 55.5501 34.1658 55.7619 34.2587 55.9727" stroke="black" stroke-width="2" stroke-linecap="round"/>
<path d="M37.751 53.9902C37.751 54.4943 37.8073 54.8419 37.945 55.3106" stroke="black" stroke-width="2" stroke-linecap="round"/>
<path d="M41.8267 53.332V54.2123" stroke="black" stroke-width="2" stroke-linecap="round"/>
<path d="M48.4233 60.5938V61.0339" stroke="black" stroke-width="2" stroke-linecap="round"/>
<path d="M45.5134 52.4512C45.5134 53.0061 45.3193 53.4367 45.3193 53.9916" stroke="black" stroke-width="2" stroke-linecap="round"/>
<path d="M56.3271 76.5904C56.3271 74.6462 57.6715 73.5646 58.6686 72.1426C59.043 71.6087 62.2421 66.5916 62.7271 67.1417C62.9813 67.4299 62.9849 68.0938 63.2539 68.4694C64.1722 69.7511 65.1475 70.9857 66.0442 72.2865C66.8985 73.5257 68.0995 75.2262 68.4441 76.7895" stroke="black" stroke-width="2" stroke-linecap="round"/>
<path d="M84.249 74.9981C84.249 72.9175 85.6036 70.9332 86.6685 69.3554C87.1277 68.675 87.8114 67.1622 88.5514 66.866C88.8007 66.7662 89.7366 66.6878 89.9661 66.8771C90.7905 67.557 91.4516 69.2919 92.0343 70.2406C92.4674 70.9455 92.7251 71.5796 92.9417 72.398C93.1442 73.1637 93.7991 74.8371 94.4343 75.1973" stroke="black" stroke-width="2" stroke-linecap="round"/>
<path d="M51.5859 72.4082V77.7853" stroke="black" stroke-width="2" stroke-linecap="round"/>
<path d="M30.3371 69.4219C30.3371 70.5836 30.3371 71.7453 30.3371 72.9071C30.3371 73.7365 29.9858 74.5162 29.9858 75.3965" stroke="black" stroke-width="2" stroke-linecap="round"/>
<path d="M62.6489 74.4004C62.8227 75.287 64.1648 76.2028 64.6684 76.9009C65.092 77.4879 65.0352 78.4774 65.2831 79.1801" stroke="black" stroke-width="2" stroke-linecap="round"/>
<path d="M89.1661 73.4043C88.6007 74.1256 87.2344 76.0747 87.2344 76.9891" stroke="black" stroke-width="2" stroke-linecap="round"/>
</svg>
